SplineFontDB: 3.2
FontName: HoneywellMCDU
FullName: HoneywellMCDU
FamilyName: HoneywellMCDU
Weight: Regular
Copyright: Copyright (c) 2021, Tyler Knox
UComments: "2021-2-17: Created with FontForge (http://fontforge.org)"
Version: 001.000
ItalicAngle: 0
UnderlinePosition: -100
UnderlineWidth: 50
Ascent: 800
Descent: 200
InvalidEm: 0
LayerCount: 2
Layer: 0 0 "Back" 1
Layer: 1 0 "Fore" 0
XUID: [1021 809 -1304484988 425]
StyleMap: 0x0000
FSType: 0
OS2Version: 0
OS2_WeightWidthSlopeOnly: 0
OS2_UseTypoMetrics: 1
CreationTime: 1613613920
ModificationTime: 1627858046
PfmFamily: 17
TTFWeight: 400
TTFWidth: 5
LineGap: 90
VLineGap: 90
OS2TypoAscent: 0
OS2TypoAOffset: 1
OS2TypoDescent: 0
OS2TypoDOffset: 1
OS2TypoLinegap: 90
OS2WinAscent: 0
OS2WinAOffset: 1
OS2WinDescent: 0
OS2WinDOffset: 1
HheadAscent: 0
HheadAOffset: 1
HheadDescent: 0
HheadDOffset: 1
OS2Vendor: 'PfEd'
OS2UnicodeRanges: 00000083.00000000.00000000.00000000
MarkAttachClasses: 1
DEI: 91125
Encoding: UnicodeFull
UnicodeInterp: none
NameList: AGL For New Fonts
DisplaySize: -48
AntiAlias: 1
FitToEm: 0
WinInfo: 864 16 6
BeginPrivate: 0
EndPrivate
BeginChars: 1114112 63

StartChar: O
Encoding: 79 79 0
Width: 720
Flags: HW
LayerCount: 2
Fore
SplineSet
238.583007812 801.227539062 m 0
 303.016601562 801.219726562 363.608398438 790.763671875 409.565429688 751.420898438 c 0
 455.5859375 712.025390625 478.861328125 647.788085938 479.16796875 561.374023438 c 2
 479.16796875 561.251953125 l 1
 478.333984375 242.083007812 l 2
 478.369140625 158.099609375 469.250976562 95.5810546875 426.543945312 53.0634765625 c 0
 383.907226562 10.615234375 321.637695312 1.880859375 238.616210938 2.0732421875 c 0
 174.068359375 1.3662109375 113.111328125 11.478515625 67.0244140625 51 c 0
 20.896484375 90.5556640625 -2.0859375 155.265625 -1.6669921875 242.258789062 c 2
 -2.5009765625 561.127929688 l 1
 -2.5009765625 561.279296875 l 1
 -2.5009765625 561.4296875 l 2
 -2.080078125 647.701171875 21.2099609375 712.095703125 67.2001953125 751.725585938 c 0
 113.138671875 791.310546875 173.98828125 801.955078125 238.583007812 801.227539062 c 0
237.866210938 721.235351562 m 2
 182.814453125 721.876953125 143.720703125 712.063476562 119.419921875 691.123046875 c 0
 95.1220703125 670.185546875 77.859375 633.888671875 77.5009765625 561.060546875 c 0
 77.5009765625 561.052734375 77.5009765625 561.046875 77.5009765625 561.0390625 c 2
 78.333984375 242.021484375 l 1
 78.333984375 241.874023438 l 2
 77.9794921875 168.340820312 95.0234375 132.376953125 119.103515625 111.728515625 c 0
 143.18359375 91.0791015625 182.549804688 81.443359375 237.884765625 82.064453125 c 2
 238.161132812 82.068359375 l 1
 238.44140625 82.064453125 l 2
 315.125 81.861328125 352.76953125 92.4990234375 370.103515625 109.755859375 c 0
 387.4375 127.013671875 398.365234375 164.70703125 398.333007812 242.048828125 c 2
 398.333007812 242.111328125 l 1
 399.166015625 561.091796875 l 2
 399.166015625 561.09765625 399.166015625 561.103515625 399.166015625 561.110351562 c 0
 398.904296875 634.115234375 381.783203125 669.892578125 357.5390625 690.646484375 c 0
 333.29296875 711.40234375 293.8515625 721.25 238.345703125 721.232421875 c 2
 238.106445312 721.232421875 l 1
 237.866210938 721.235351562 l 2
EndSplineSet
EndChar

StartChar: A
Encoding: 65 65 1
Width: 720
Flags: HW
LayerCount: 2
Fore
SplineSet
238.982421875 798.396484375 m 1
 479.130859375 20.708984375 l 1
 479.166015625 -1.666015625 l 1
 402.534179688 -2.375 l 1
 239.348632812 539.102539062 l 1
 77.494140625 -3.1064453125 l 1
 0.83203125 -3.3330078125 l 1
 0.8369140625 19.7744140625 l 1
 238.982421875 798.396484375 l 1
98.091796875 316.666015625 m 1
 379.767578125 318.33203125 l 1
 380.241210938 238.333007812 l 1
 98.5654296875 236.66796875 l 1
 98.091796875 316.666015625 l 1
EndSplineSet
EndChar

StartChar: D
Encoding: 68 68 2
Width: 720
Flags: HW
LayerCount: 2
Fore
SplineSet
0.5078125 2.6220703125 m 1
 0.5078125 799.948242188 l 1
 80.25390625 799.948242188 l 1
 80.25390625 2.6220703125 l 1
 0.5078125 2.6220703125 l 1
41.359375 800.381835938 m 5
 280.508789062 798.54296875 l 1
 279.654296875 798.536132812 l 1
 386.395507812 800.450195312 478.413085938 695.174804688 479.674804688 559.331054688 c 2
 479.674804688 559.143554688 l 1
 479.674804688 240.896484375 l 1
 479.674804688 240.862304688 l 2
 479.440429688 104.84765625 386.2578125 2.677734375 280.555664062 2.1884765625 c 2
 280.462890625 2.1884765625 l 1
 41.220703125 2.1884765625 l 1
 41.220703125 81.931640625 l 1
 280.184570312 81.931640625 l 2
 331.522460938 82.169921875 399.759765625 141.3359375 399.930664062 241.000976562 c 2
 399.930664062 558.588867188 l 2
 399.001953125 658.474609375 330.010742188 719.680664062 281.0859375 718.803710938 c 2
 280.65625 718.794921875 l 1
 41.080078125 719.634765625 l 1
 41.359375 800.381835938 l 5
EndSplineSet
EndChar

StartChar: F
Encoding: 70 70 3
Width: 720
Flags: HW
LayerCount: 2
Fore
SplineSet
0 0 m 29
 0 799 l 25
 477 798 l 25
 478 719 l 25
 78 718 l 25
 79 478 l 25
 437 479 l 25
 437 398 l 25
 78 399 l 25
 79 0 l 25
 0 0 l 29
EndSplineSet
EndChar

StartChar: I
Encoding: 73 73 4
Width: 720
Flags: HW
LayerCount: 2
Fore
SplineSet
199 0 m 29
 198 799 l 25
 278 799 l 25
 279 0 l 25
 199 0 l 29
EndSplineSet
EndChar

StartChar: K
Encoding: 75 75 5
Width: 720
Flags: HW
LayerCount: 2
Fore
SplineSet
0 0 m 29
 0 799 l 25
 80 799 l 25
 80 399 l 25
 421 798 l 25
 482 800 l 25
 481 740 l 25
 200 399 l 25
 201 359 l 25
 480 77 l 25
 481 0 l 25
 401 0 l 25
 402 37 l 25
 119 318 l 25
 119 318 82 279 81 279 c 0
 80 279 81 0 81 0 c 25
 0 0 l 29
EndSplineSet
EndChar

StartChar: L
Encoding: 76 76 6
Width: 720
Flags: HW
LayerCount: 2
Fore
SplineSet
0 799 m 29
 80 799 l 25
 81 78 l 25
 480 78 l 25
 481 -1 l 25
 0 0 l 25
 0 799 l 29
EndSplineSet
EndChar

StartChar: T
Encoding: 84 84 7
Width: 720
Flags: HW
LayerCount: 2
Fore
SplineSet
200 0 m 29
 201 719 l 25
 0 719 l 25
 0 799 l 25
 481 799 l 25
 481 718 l 25
 280 719 l 25
 281 0 l 25
 200 0 l 29
EndSplineSet
EndChar

StartChar: M
Encoding: 77 77 8
Width: 720
Flags: HW
LayerCount: 2
Fore
SplineSet
0 0 m 25
 0 797 l 25
 78 800 l 25
 218 517 l 25
 260 517 l 29
 401 798 l 25
 481 798 l 25
 483 0 l 25
 400 0 l 25
 399 597 l 25
 280 358 l 25
 200 357 l 25
 81 598 l 25
 80 0 l 25
 0 0 l 25
EndSplineSet
EndChar

StartChar: N
Encoding: 78 78 9
Width: 720
Flags: HW
LayerCount: 2
Fore
SplineSet
-4.7529296875 -0.361328125 m 1
 -4.7529296875 798.948242188 l 1
 74.123046875 798.948242188 l 1
 74.123046875 -0.361328125 l 1
 -4.7529296875 -0.361328125 l 1
475.198242188 797.224609375 m 1
 474.358398438 -0.404296875 l 1
 394.482421875 -0.318359375 l 1
 395.322265625 797.310546875 l 1
 475.198242188 797.224609375 l 1
75.0888671875 798.854492188 m 1
 469.91015625 30.8251953125 l 1
 394.486328125 -0.314453125 l 1
 -0.3046875 767.735351562 l 1
 75.0888671875 798.854492188 l 1
EndSplineSet
EndChar

StartChar: H
Encoding: 72 72 10
Width: 720
Flags: HW
LayerCount: 2
Fore
SplineSet
0 0 m 29
 0 799 l 25
 78 800 l 25
 77 439 l 25
 397 439 l 25
 397 799 l 25
 478 799 l 25
 478 0 l 25
 397 0 l 25
 397 359 l 25
 77 358 l 25
 77 0 l 25
 0 0 l 29
EndSplineSet
EndChar

StartChar: S
Encoding: 83 83 11
Width: 720
Flags: HW
LayerCount: 2
Fore
SplineSet
241.19921875 798.849609375 m 4
 275.365234375 799.09765625 309.325195312 791.17578125 340.580078125 777.58984375 c 4
 405.088867188 749.727539062 468.4765625 692.940429688 469.3046875 617.734375 c 5
 442.508789062 617.5078125 415.71484375 617.282226562 388.919921875 617.055664062 c 5
 386.48828125 653.5234375 354.346679688 679.381835938 324.635742188 695.751953125 c 4
 263.387695312 731.403320312 184.573242188 721.546875 126.763671875 683.956054688 c 4
 86.2109375 660.163085938 72.576171875 608.41796875 84.115234375 564.903320312 c 4
 100.243164062 506.165039062 166.807617188 482.975585938 221.4609375 477.512695312 c 5
 278.12890625 477.861328125 337.090820312 468.626953125 384.53125 435.485351562 c 4
 489.129882812 365.5703125 513.25 207.270507812 444.678710938 104.46875 c 4
 376.951171875 5.2265625 236.489257812 -24.162109375 127.65234375 17.390625 c 4
 53.8115234375 43.556640625 -1.623046875 116.694335938 0 196.03515625 c 5
 74.7841796875 196.247070312 l 5
 74.537109375 169.954101562 85.7802734375 131.828125 116.142578125 116.172851562 c 5
 182.116210938 64.9794921875 282.440429688 68.810546875 348.553710938 117.948242188 c 4
 401.848632812 155.962890625 411.885742188 228.640625 396.083007812 288.040039062 c 4
 381.41796875 349.50390625 322.287109375 392.922851562 260.189453125 395.483398438 c 5
 197.653320312 395.001953125 132.759765625 406.090820312 80.5869140625 442.700195312 c 4
 6.341796875 491.763671875 -21.8154296875 596.796875 18.1123046875 676.350585938 c 4
 57.802734375 759.249023438 153.65625 797.590820312 241.19921875 798.849609375 c 4
241.19921875 798.849609375 m 1028
EndSplineSet
EndChar

StartChar: U
Encoding: 85 85 12
Width: 720
Flags: HW
LayerCount: 2
Fore
SplineSet
477.145507812 798.904296875 m 1
 477.979492188 241.841796875 l 1
 477.979492188 241.77734375 l 2
 477.875 176.892578125 467.780273438 116.172851562 428.758789062 69.9345703125 c 0
 389.73828125 23.6982421875 325.745117188 0.2177734375 239.42578125 -0.2919921875 c 2
 239.080078125 -0.2919921875 l 1
 238.73828125 -0.2880859375 l 2
 173.53515625 0.458984375 113.263671875 11.65625 67.9287109375 51.1455078125 c 0
 22.59375 90.6337890625 0.0673828125 154.17578125 -0.4306640625 239.100585938 c 2
 -0.43359375 239.216796875 l 1
 -0.43359375 798.842773438 l 1
 79.048828125 798.842773438 l 1
 79.048828125 239.568359375 l 2
 79.470703125 167.688476562 96.1318359375 131.984375 120.131835938 111.078125 c 0
 144.072265625 90.2265625 183.165039062 79.890625 239.250976562 79.2001953125 c 0
 312.045898438 79.6767578125 347.424804688 96.7958984375 368.017578125 121.197265625 c 0
 388.639648438 145.6328125 398.408203125 185.63671875 398.5 241.903320312 c 2
 397.663085938 798.78125 l 1
 477.145507812 798.904296875 l 1
EndSplineSet
EndChar

StartChar: V
Encoding: 86 86 13
Width: 720
Flags: HW
LayerCount: 2
Fore
SplineSet
41.0576171875 799.965820312 m 1
 240.022460938 237.751953125 l 1
 437.280273438 799.978515625 l 1
 481.666015625 798.749023438 l 1
 481.052734375 677.520507812 l 1
 239.975585938 -2.75 l 1
 -0.541015625 677.809570312 l 1
 -0.224609375 799.203125 l 1
 41.0576171875 799.965820312 l 1
EndSplineSet
EndChar

StartChar: X
Encoding: 88 88 14
Width: 720
Flags: HW
LayerCount: 2
Fore
SplineSet
0.84375 798.287109375 m 5
 49.958984375 798.111328125 l 5
 481.62890625 78.658203125 l 5
 481.471679688 -1.95703125 l 5
 435.434570312 -2.494140625 l 5
 1.26171875 719.459960938 l 5
 0.84375 798.287109375 l 5
437.956054688 798.561523438 m 5
 481.471679688 798.826171875 l 5
 482.4453125 719.01171875 l 5
 49.5205078125 -2.525390625 l 5
 -1.501953125 -4.4580078125 l 5
 0.0283203125 77.8583984375 l 5
 437.956054688 798.561523438 l 5
EndSplineSet
EndChar

StartChar: B
Encoding: 66 66 15
Width: 720
Flags: HW
LayerCount: 2
Fore
SplineSet
79.6962890625 800.08203125 m 5
 80.529296875 1.1943359375 l 5
 1.0322265625 1.1123046875 l 5
 0.232421875 763.4296875 l 4
 0.1943359375 800 l 5
 79.6962890625 800.08203125 l 5
39.4404296875 800.516601562 m 5
 238.93359375 799.638671875 l 6
 302.107421875 799.807617188 354.626953125 774.991210938 388.788085938 737.098632812 c 4
 422.948242188 699.206054688 439.37109375 650.055664062 439.612304688 601.350585938 c 4
 439.853515625 552.645507812 423.90234375 503.30078125 389.970703125 465.110351562 c 4
 356.0390625 426.918945312 303.5546875 401.745117188 240.079101562 401.420898438 c 6
 239.9765625 401.41796875 l 5
 40.779296875 401.41796875 l 5
 40.779296875 480.918945312 l 5
 239.672851562 480.918945312 l 6
 283.50390625 481.142578125 311.208984375 496.15234375 330.541992188 517.912109375 c 4
 349.875 539.672851562 360.263671875 570.047851562 360.111328125 600.956054688 c 4
 359.958007812 631.864257812 349.251953125 662.22265625 329.741210938 683.865234375 c 4
 310.23046875 705.508789062 282.536132812 720.252929688 239.14453125 720.137695312 c 6
 238.923828125 720.137695312 l 5
 38.7744140625 721.8125 l 5
 39.4404296875 800.516601562 l 5
40.779296875 480.918945312 m 5
 239.041015625 480.918945312 l 6
 310.590820312 480.926757812 369.318359375 449.79296875 406.598632812 404.0859375 c 4
 443.87890625 358.377929688 461.307617188 299.952148438 461.463867188 241.971679688 c 4
 461.620117188 183.991210938 444.50390625 125.411132812 407.490234375 79.34765625 c 4
 370.477539062 33.2841796875 311.977539062 1.53515625 240.327148438 0.7236328125 c 6
 240.018554688 0.720703125 l 5
 39.7763671875 1.55859375 l 5
 40.1103515625 81.0556640625 l 5
 239.46484375 80.2216796875 l 6
 289.416992188 80.7978515625 321.958007812 99.822265625 345.518554688 129.14453125 c 4
 369.086914062 158.475585938 382.078125 199.904296875 381.96484375 241.7578125 c 4
 381.852539062 283.611328125 368.63671875 324.84765625 344.993164062 353.836914062 c 4
 321.349609375 382.82421875 288.875976562 401.423828125 239.043945312 401.41796875 c 6
 239.041015625 401.41796875 l 5
 40.779296875 401.41796875 l 5
 40.779296875 480.918945312 l 5
EndSplineSet
EndChar

StartChar: C
Encoding: 67 67 16
Width: 720
Flags: HW
LayerCount: 2
Fore
SplineSet
237.481445312 799.793945312 m 2
 237.512695312 799.793945312 l 2
 311.381835938 799.610351562 370.126953125 774.956054688 407.483398438 733.068359375 c 0
 444.844726562 691.173828125 459.442382812 635.947265625 459.211914062 580.327148438 c 1
 379.213867188 580.65625 l 1
 379.385742188 622.158203125 368.642578125 656.424804688 347.776367188 679.822265625 c 0
 326.91015625 703.220703125 294.553710938 719.655273438 237.291015625 719.79296875 c 2
 237.275390625 719.79296875 l 1
 237.259765625 719.79296875 l 2
 184.62109375 719.958007812 145.159179688 709.994140625 120.383789062 688.80078125 c 0
 95.607421875 667.608398438 78.111328125 631.875 78.7216796875 559.787109375 c 2
 78.7216796875 559.615234375 l 1
 78.7216796875 238.6015625 l 1
 78.7216796875 238.478515625 l 2
 78.388671875 184.1875 88.3037109375 143.357421875 107.520507812 118.704101562 c 0
 126.73046875 94.0576171875 156.53125 78.12890625 218.638671875 78.380859375 c 0
 277.12109375 78.763671875 313.251953125 102.158203125 339.135742188 136.724609375 c 0
 365.025390625 171.297851562 377.95703125 218.950195312 377.549804688 260.21484375 c 1
 457.544921875 261.005859375 l 1
 458.11328125 203.387695312 441.811523438 140.373046875 403.170898438 88.7734375 c 0
 364.53125 37.173828125 300.837890625 -1.099609375 219.122070312 -1.6240234375 c 2
 219.079101562 -1.6240234375 l 1
 219.036132812 -1.6240234375 l 2
 141.052734375 -1.953125 80.4267578125 23.33203125 44.423828125 69.521484375 c 0
 8.4208984375 115.711914062 -1.6669921875 175.352539062 -1.2763671875 238.970703125 c 2
 -1.2763671875 559.107421875 l 2
 -2.0087890625 645.53515625 22.271484375 710.154296875 68.3837890625 749.596679688 c 0
 114.489257812 789.033203125 175.017578125 799.986328125 237.481445312 799.793945312 c 2
EndSplineSet
EndChar

StartChar: E
Encoding: 69 69 17
Width: 720
Flags: HW
LayerCount: 2
Fore
SplineSet
0 0 m 25
 0 799 l 25
 480 798 l 25
 480 719 l 25
 78 718 l 25
 79 478 l 25
 437 479 l 25
 437 398 l 25
 78 399 l 17
 83.7880859375 82 l 0
 482.794921875 82 l 0
 483 0 l 9
 0 0 l 25
EndSplineSet
EndChar

StartChar: R
Encoding: 82 82 18
Width: 720
Flags: HW
LayerCount: 2
Fore
SplineSet
-2.083984375 801.091796875 m 5
 77.9599609375 801.008789062 l 5
 77.1259765625 -0.2451171875 l 5
 -2.91796875 -0.1591796875 l 5
 -2.083984375 801.091796875 l 5
318.784179688 802.719726562 m 5
 318.799804688 802.719726562 l 6
 533.984375 803.411132812 535.129882812 400.868164062 319.756835938 400.841796875 c 6
 37.220703125 400.0078125 l 5
 36.986328125 480.051757812 l 5
 319.689453125 480.884765625 l 5
 319.748046875 480.884765625 l 6
 429.225585938 480.8984375 428.1796875 723.037109375 319.049804688 722.676757812 c 6
 319.04296875 722.676757812 l 5
 38.0576171875 721.842773438 l 5
 37.8173828125 801.885742188 l 5
 318.784179688 802.719726562 l 5
179.553710938 465.202148438 m 5
 483.877929688 45.814453125 l 5
 482.336914062 -1.8701171875 l 5
 419.095703125 -1.1962890625 l 5
 114.771484375 418.192382812 l 5
 179.553710938 465.202148438 l 5
EndSplineSet
EndChar

StartChar: P
Encoding: 80 80 19
Width: 720
Flags: HW
LayerCount: 2
Fore
SplineSet
-2.083984375 801.091796875 m 1
 77.9599609375 801.008789062 l 1
 77.1259765625 -0.2451171875 l 1
 -2.91796875 -0.1591796875 l 1
 -2.083984375 801.091796875 l 1
318.784179688 802.719726562 m 1
 318.799804688 802.719726562 l 2
 533.984375 803.411132812 535.129882812 400.868164062 319.756835938 400.841796875 c 2
 37.220703125 400.0078125 l 1
 36.986328125 480.051757812 l 1
 319.689453125 480.884765625 l 1
 319.748046875 480.884765625 l 2
 429.225585938 480.8984375 428.1796875 723.037109375 319.049804688 722.676757812 c 2
 319.04296875 722.676757812 l 1
 38.0576171875 721.842773438 l 1
 37.8173828125 801.885742188 l 1
 318.784179688 802.719726562 l 1
EndSplineSet
EndChar

StartChar: G
Encoding: 71 71 20
Width: 720
Flags: HW
LayerCount: 2
Fore
SplineSet
237.481445312 799.59375 m 2
 237.512695312 799.59375 l 2
 311.381835938 799.41015625 370.126953125 774.756835938 407.483398438 732.868164062 c 0
 444.844726562 690.973632812 459.442382812 635.747070312 459.212890625 580.126953125 c 1
 379.21484375 580.456054688 l 1
 379.38671875 621.958007812 368.643554688 656.224609375 347.77734375 679.623046875 c 0
 326.911132812 703.020507812 294.5546875 719.456054688 237.291992188 719.592773438 c 2
 237.275390625 719.592773438 l 1
 237.259765625 719.592773438 l 2
 184.62109375 719.7578125 145.16015625 709.793945312 120.3828125 688.6015625 c 0
 95.6064453125 667.408203125 78.111328125 631.674804688 78.7216796875 559.586914062 c 2
 78.7216796875 559.415039062 l 1
 78.7216796875 238.401367188 l 1
 78.7216796875 238.278320312 l 2
 78.3876953125 183.987304688 88.3037109375 143.158203125 107.520507812 118.50390625 c 0
 126.73046875 93.8583984375 156.53125 77.9287109375 218.639648438 78.1806640625 c 0
 277.12109375 78.564453125 307.404296875 107.234375 339.13671875 136.525390625 c 0
 382.350585938 176.4140625 402.422851562 309.709960938 400.252929688 357.654296875 c 1
 480.248046875 358.4453125 l 1
 482.819335938 292.409179688 453.771484375 142.697265625 403.170898438 88.5732421875 c 0
 359.147460938 41.4833984375 300.836914062 -1.2998046875 219.122070312 -1.82421875 c 2
 219.079101562 -1.82421875 l 1
 219.036132812 -1.82421875 l 2
 141.052734375 -2.1533203125 80.4267578125 23.1318359375 44.423828125 69.322265625 c 0
 8.4208984375 115.51171875 -1.6669921875 175.15234375 -1.2763671875 238.770507812 c 2
 -1.2763671875 558.907226562 l 2
 -2.0087890625 645.334960938 22.271484375 709.955078125 68.3837890625 749.397460938 c 0
 114.489257812 788.833007812 175.018554688 799.786132812 237.481445312 799.59375 c 2
479.703125 437.623046875 m 1
 479.942382812 357.622070312 l 1
 198.782226562 356.782226562 l 1
 198.541992188 436.780273438 l 1
 479.703125 437.623046875 l 1
EndSplineSet
EndChar

StartChar: J
Encoding: 74 74 21
Width: 720
Flags: HW
LayerCount: 2
Fore
SplineSet
399.166992188 239.44921875 m 2
 399.166992188 156.720703125 377.375976562 120.774414062 349.411132812 101.690429688 c 0
 325.63671875 85.4658203125 288.778320312 77.115234375 239.165039062 76.66796875 c 0
 158.104492188 77.3896484375 122.427734375 99.4091796875 103.288085938 127.706054688 c 0
 87.0009765625 151.78515625 78.6796875 188.67578125 78.3330078125 237.788085938 c 1
 -1.6650390625 237.22265625 l 1
 -1.267578125 180.825195312 7.080078125 127.1640625 36.9755859375 82.96484375 c 0
 75.3564453125 26.220703125 144.146484375 -3.33203125 239.504882812 -3.33203125 c 0
 296.319335938 -2.861328125 350.204101562 5.384765625 394.427734375 35.564453125 c 0
 451.52734375 74.5322265625 479.166992188 143.267578125 479.166992188 239.44921875 c 2
 479.166992188 798.333007812 l 1
 399.166992188 798.333007812 l 1
 399.166992188 239.44921875 l 2
EndSplineSet
EndChar

StartChar: Q
Encoding: 81 81 22
Width: 720
Flags: HW
LayerCount: 2
Fore
SplineSet
238.583007812 800.827148438 m 0
 303.015625 800.819335938 363.608398438 790.36328125 409.565429688 751.021484375 c 0
 455.5859375 711.625976562 478.861328125 647.388671875 479.16796875 560.974609375 c 2
 479.16796875 560.8515625 l 1
 478.333984375 241.682617188 l 2
 478.370117188 157.700195312 469.25 95.181640625 426.543945312 52.6640625 c 0
 383.90625 10.21484375 321.637695312 1.48046875 238.616210938 1.6728515625 c 0
 174.068359375 0.966796875 113.112304688 11.078125 67.0244140625 50.599609375 c 0
 20.8974609375 90.15625 -2.0859375 154.866210938 -1.6669921875 241.858398438 c 2
 -2.5009765625 560.728515625 l 1
 -2.5009765625 560.87890625 l 1
 -2.5009765625 561.029296875 l 2
 -2.0791015625 647.301757812 21.2099609375 711.696289062 67.2001953125 751.325195312 c 0
 113.138671875 790.911132812 173.98828125 801.5546875 238.583007812 800.827148438 c 0
237.866210938 720.834960938 m 2
 182.814453125 721.4765625 143.721679688 711.663085938 119.420898438 690.723632812 c 0
 95.1220703125 669.78515625 77.859375 633.489257812 77.5009765625 560.661132812 c 0
 77.5009765625 560.653320312 77.5009765625 560.647460938 77.5009765625 560.638671875 c 2
 78.333984375 241.62109375 l 1
 78.333984375 241.473632812 l 2
 77.98046875 167.940429688 95.0234375 131.977539062 119.103515625 111.328125 c 0
 143.18359375 90.6787109375 182.55078125 81.04296875 237.884765625 81.6650390625 c 2
 238.161132812 81.66796875 l 1
 238.44140625 81.6650390625 l 2
 315.125 81.4609375 352.76953125 92.0986328125 370.103515625 109.356445312 c 0
 387.4375 126.614257812 398.365234375 164.307617188 398.333007812 241.649414062 c 2
 398.333007812 241.7109375 l 1
 399.166015625 560.69140625 l 2
 399.166015625 560.697265625 399.166015625 560.703125 399.166015625 560.709960938 c 0
 398.905273438 633.71484375 381.782226562 669.4921875 357.5390625 690.247070312 c 0
 333.29296875 711.001953125 293.8515625 720.849609375 238.345703125 720.83203125 c 2
 238.10546875 720.83203125 l 1
 237.866210938 720.834960938 l 2
267.53515625 266.513671875 m 1
 480.03515625 64.8466796875 l 1
 480.000976562 6.666015625 l 1
 424.965820312 6.8193359375 l 1
 212.465820312 208.486328125 l 1
 267.53515625 266.513671875 l 1
EndSplineSet
EndChar

StartChar: W
Encoding: 87 87 23
Width: 720
Flags: HW
LayerCount: 2
Fore
SplineSet
481 798 m 25
 481 1 l 25
 403 -2 l 25
 263 281 l 25
 221 281 l 25
 80 0 l 25
 0 0 l 25
 -2 798 l 25
 81 798 l 25
 82 201 l 25
 201 440 l 25
 281 441 l 25
 400 200 l 25
 401 798 l 25
 481 798 l 25
EndSplineSet
EndChar

StartChar: Y
Encoding: 89 89 24
Width: 720
Flags: HW
LayerCount: 2
Fore
SplineSet
199.166992188 -3.3330078125 m 1
 199.166992188 518.333007812 l 1
 279.166992188 518.333007812 l 1
 279.166992188 -3.3330078125 l 1
 199.166992188 -3.3330078125 l 1
428.48828125 799.009765625 m 1
 481.666015625 799.166992188 l 1
 481.51171875 730.991210938 l 1
 240.041015625 375.950195312 l 1
 0.1806640625 730.118164062 l 1
 0.8330078125 799.166992188 l 1
 51.4853515625 798.215820312 l 1
 239.958007812 519.048828125 l 1
 428.48828125 799.009765625 l 1
EndSplineSet
EndChar

StartChar: Z
Encoding: 90 90 25
Width: 720
Flags: HW
LayerCount: 2
Fore
SplineSet
476.383789062 799.295898438 m 1
 127.091796875 78.205078125 l 1
 479.248046875 77.5009765625 l 1
 479.087890625 -2.5009765625 l 1
 -0.427734375 -1.5380859375 l 1
 348.616210938 719.036132812 l 1
 0.080078125 718.334960938 l 1
 -0.080078125 798.333007812 l 1
 476.383789062 799.295898438 l 1
EndSplineSet
EndChar

StartChar: bracketleft
Encoding: 91 91 26
Width: 720
Flags: HW
LayerCount: 2
Fore
SplineSet
320.879882812 0.0009765625 m 1
 320.879882812 80.0009765625 l 1
 79.259765625 80.0009765625 l 1
 79.9990234375 722.5 l 1
 320.879882812 722.5 l 1
 320.879882812 802.5 l 1
 0.0908203125 802.5 l 1
 -0.8330078125 0.0009765625 l 1
 320.879882812 0.0009765625 l 1
EndSplineSet
EndChar

StartChar: bracketright
Encoding: 93 93 27
Width: 720
Flags: HW
LayerCount: 2
Fore
SplineSet
158.33203125 78.333984375 m 1
 158.33203125 -1.666015625 l 1
 480.046875 -1.666015625 l 1
 479.12109375 800.833007812 l 1
 158.33203125 800.833007812 l 1
 158.33203125 720.833007812 l 1
 399.212890625 720.833007812 l 1
 399.954101562 78.333984375 l 1
 158.33203125 78.333984375 l 1
EndSplineSet
EndChar

StartChar: zero
Encoding: 48 48 28
Width: 720
Flags: HW
LayerCount: 2
Fore
SplineSet
238.583007812 801.227539062 m 4
 303.016601562 801.219726562 363.608398438 790.763671875 409.565429688 751.420898438 c 4
 455.5859375 712.025390625 478.861328125 647.788085938 479.16796875 561.374023438 c 6
 479.16796875 561.251953125 l 5
 478.333984375 242.083007812 l 6
 478.369140625 158.099609375 469.250976562 95.5810546875 426.543945312 53.0634765625 c 4
 383.907226562 10.615234375 321.637695312 1.880859375 238.616210938 2.0732421875 c 4
 174.068359375 1.3662109375 113.111328125 11.478515625 67.0244140625 51 c 4
 20.896484375 90.5556640625 -2.0859375 155.265625 -1.6669921875 242.258789062 c 6
 -2.5009765625 561.127929688 l 5
 -2.5009765625 561.279296875 l 5
 -2.5009765625 561.4296875 l 6
 -2.080078125 647.701171875 21.2099609375 712.095703125 67.2001953125 751.725585938 c 4
 113.138671875 791.310546875 173.98828125 801.955078125 238.583007812 801.227539062 c 4
237.866210938 721.235351562 m 6
 182.814453125 721.876953125 143.720703125 712.063476562 119.419921875 691.123046875 c 4
 95.1220703125 670.185546875 77.859375 633.888671875 77.5009765625 561.060546875 c 4
 77.5009765625 561.052734375 77.5009765625 561.046875 77.5009765625 561.0390625 c 6
 78.333984375 242.021484375 l 5
 78.333984375 241.874023438 l 6
 77.9794921875 168.340820312 95.0234375 132.376953125 119.103515625 111.728515625 c 4
 143.18359375 91.0791015625 182.549804688 81.443359375 237.884765625 82.064453125 c 6
 238.161132812 82.068359375 l 5
 238.44140625 82.064453125 l 6
 315.125 81.861328125 352.76953125 92.4990234375 370.103515625 109.755859375 c 4
 387.4375 127.013671875 398.365234375 164.70703125 398.333007812 242.048828125 c 6
 398.333007812 242.111328125 l 5
 399.166015625 561.091796875 l 6
 399.166015625 561.09765625 399.166015625 561.103515625 399.166015625 561.110351562 c 4
 398.904296875 634.115234375 381.783203125 669.892578125 357.5390625 690.646484375 c 4
 333.29296875 711.40234375 293.8515625 721.25 238.345703125 721.232421875 c 6
 238.106445312 721.232421875 l 5
 237.866210938 721.235351562 l 6
361.939453125 700.251953125 m 5
 431.39453125 660.549804688 l 5
 112.2265625 102.21484375 l 5
 42.775390625 141.916992188 l 5
 361.939453125 700.251953125 l 5
EndSplineSet
EndChar

StartChar: one
Encoding: 49 49 29
Width: 720
Flags: HW
LayerCount: 2
Fore
SplineSet
199.1640625 798.602539062 m 1
 278.333984375 800 l 1
 278.333984375 41.66796875 l 1
 198.333007812 41.66796875 l 1
 198.333007812 629.284179688 l 1
 175.002929688 582.231445312 l 1
 103.331054688 617.768554688 l 1
 199.1640625 798.602539062 l 1
119.999023438 82.4990234375 m 1
 357.499023438 82.4990234375 l 1
 357.499023438 2.5009765625 l 1
 119.999023438 2.5009765625 l 1
 119.999023438 82.4990234375 l 1
EndSplineSet
EndChar

StartChar: two
Encoding: 50 50 30
Width: 720
Flags: HW
LayerCount: 2
Fore
SplineSet
248.791015625 800.314453125 m 2
 248.922851562 800.314453125 l 1
 249.051757812 800.314453125 l 2
 316.314453125 799.853515625 377.7734375 790.561523438 426.584960938 756.791015625 c 0
 475.395507812 723.020507812 504.03125 663.448242188 504.467773438 588.490234375 c 2
 504.471679688 587.984375 l 1
 504.461914062 587.482421875 l 2
 503.669921875 544.1953125 480.749023438 513.142578125 451.486328125 470.694335938 c 0
 422.224609375 428.245117188 383.286132812 379.59765625 340.49609375 328.05859375 c 0
 254.91796875 224.982421875 132.771484375 118.25 68.73828125 30.4765625 c 5
 1.0556640625 79.853515625 l 5
 69.265625 173.353515625 191.708984375 280.006835938 276.036132812 381.575195312 c 0
 318.198242188 432.358398438 356.037109375 479.846679688 382.506835938 518.244140625 c 0
 408.912109375 556.547851562 420.633789062 590.8671875 420.650390625 588.916015625 c 1
 420.154296875 644.8203125 405.091796875 669.78125 378.915039062 687.891601562 c 0
 352.615234375 706.087890625 307.61328125 716.10546875 248.659179688 716.530273438 c 0
 192.188476562 716.555664062 154.430664062 705.829101562 133.751953125 690.198242188 c 0
 113.0625 674.55859375 102.237304688 653.743164062 102.1484375 609.978515625 c 1
 18.3701171875 610.149414062 l 1
 18.494140625 671.290039062 40.455078125 724.694335938 83.2314453125 757.029296875 c 0
 126.008789062 789.364257812 182.374023438 800.358398438 248.791015625 800.314453125 c 2
-0.755859375 82.947265625 m 1
 504.54296875 82.07421875 l 1
 504.397460938 -1.70703125 l 1
 -0.9013671875 -0.833984375 l 1
 -0.755859375 82.947265625 l 1
EndSplineSet
EndChar

StartChar: three
Encoding: 51 51 31
Width: 720
Flags: HW
LayerCount: 2
Fore
SplineSet
160.497070312 399.169921875 m 1
 274.481445312 400.5625 357.158203125 353.311523438 387.159179688 292.87890625 c 0
 395.52734375 276.020507812 400.243164062 257.791992188 400.82421875 238.1015625 c 0
 400.06640625 193.680664062 386.590820312 157.6640625 364.955078125 131.290039062 c 0
 337.630859375 97.982421875 294.951171875 76.650390625 237.090820312 76.650390625 c 0
 170.606445312 76.650390625 121.5546875 107.071289062 97.21875 142.58203125 c 0
 84.9375 160.50390625 79.0732421875 179.331054688 79.1669921875 196.454101562 c 1
 -0.83203125 196.888671875 l 1
 -1.02734375 161.076171875 10.859375 127.090820312 31.181640625 97.4365234375 c 0
 72.0166015625 37.8505859375 147.266601562 -4.3779296875 240.458007812 -3.3310546875 c 0
 317.203125 -2.416015625 383.431640625 27.69921875 426.83203125 80.6025390625 c 0
 461.587890625 122.969726562 480.006835938 177.486328125 480.838867188 238.547851562 c 0
 480.060546875 270.790039062 472.5078125 300.884765625 458.861328125 328.374023438 c 0
 439.913085938 366.54296875 410.461914062 398.241210938 373.5859375 422.56640625 c 1
 405.025390625 435.004882812 433.623046875 455.259765625 452.658203125 486.939453125 c 0
 470.909179688 517.314453125 478.7734375 554.380859375 478.331054688 598.73828125 c 0
 477.6171875 648.330078125 459.659179688 691.06640625 431.004882812 723.2421875 c 0
 388.98828125 770.422851562 319.685546875 801.19140625 237.491210938 801.19140625 c 0
 156.098632812 801.19140625 87.419921875 770.861328125 46.162109375 723.9453125 c 0
 17.490234375 691.342773438 0.833984375 649.180664062 0.833984375 598.8046875 c 1
 80.8310546875 599.528320312 l 1
 80.556640625 630.388671875 90.2802734375 652.993164062 106.250976562 671.153320312 c 0
 132.612304688 701.129882812 182.412109375 721.19140625 237.491210938 721.19140625 c 0
 293.455078125 721.19140625 344.134765625 700.520507812 371.249023438 670.073242188 c 0
 388.204101562 651.036132812 398.348632812 627.760742188 398.348632812 595.266601562 c 0
 398.348632812 562.453125 392.1640625 541.587890625 384.034179688 528.056640625 c 0
 374.2109375 511.708984375 359.390625 501.032226562 332.940429688 493.096679688 c 0
 293.682617188 481.319335938 229.193359375 480.184570312 159.403320312 479.163085938 c 1
 160.497070312 399.169921875 l 1
EndSplineSet
EndChar

StartChar: four
Encoding: 52 52 32
Width: 720
Flags: HW
LayerCount: 2
Fore
SplineSet
397.499023438 800.375 m 1
 397.499023438 -0.833984375 l 1
 317.500976562 -0.833984375 l 1
 317.500976562 577.958984375 l 1
 63.3369140625 270.35546875 l 1
 1.6640625 321.3125 l 1
 397.499023438 800.375 l 1
-0.6953125 319.999023438 m 1
 479.305664062 318.33203125 l 1
 479.029296875 238.333984375 l 1
 -0.9716796875 240.000976562 l 1
 -0.6953125 319.999023438 l 1
EndSplineSet
EndChar

StartChar: five
Encoding: 53 53 33
Width: 720
Flags: HW
LayerCount: 2
Fore
SplineSet
-1.6669921875 800.907226562 m 1
 480.075195312 800 l 1
 479.924804688 719.999023438 l 1
 78.333984375 720.755859375 l 1
 78.333984375 480.139648438 l 1
 279.047851562 480.83203125 l 1
 279.069335938 480.83203125 l 2
 345.8984375 480.997070312 400.708007812 447.9765625 433.94140625 401.77734375 c 0
 467.174804688 355.579101562 481.852539062 297.75 481.659179688 240.384765625 c 0
 481.465820312 183.020507812 466.400390625 125.286132812 433.341796875 79.0849609375 c 0
 400.283203125 32.8828125 346.14453125 -0.5712890625 280.158203125 -0.833984375 c 2
 280.078125 -0.833984375 l 1
 198.059570312 -0.833984375 l 1
 197.782226562 -0.830078125 l 2
 129.328125 0.1123046875 75.802734375 25.5 43.0244140625 64.677734375 c 0
 10.2451171875 103.854492188 -1.5791015625 152.955078125 -1.6669921875 199.08984375 c 1
 78.333984375 199.243164062 l 1
 78.3955078125 166.875976562 86.98828125 136.799804688 104.379882812 116.012695312 c 0
 121.7578125 95.2421875 148.133789062 79.8896484375 198.766601562 79.16796875 c 2
 279.840820312 79.16796875 l 2
 320.813476562 79.330078125 347.334960938 96.361328125 368.282226562 125.63671875 c 0
 389.229492188 154.911132812 401.516601562 197.642578125 401.661132812 240.655273438 c 0
 401.805664062 283.668945312 389.807617188 326.131835938 368.99609375 355.0625 c 0
 348.184570312 383.993164062 321.58203125 400.9375 279.26953125 400.833984375 c 0
 279.268554688 400.833984375 279.267578125 400.833984375 279.266601562 400.833984375 c 2
 -1.6669921875 399.861328125 l 1
 -1.6669921875 800.907226562 l 1
EndSplineSet
EndChar

StartChar: six
Encoding: 54 54 34
Width: 720
Flags: HW
LayerCount: 2
Fore
SplineSet
238.59765625 798.333007812 m 2
 479.16796875 798.333007812 l 1
 479.16796875 718.334960938 l 1
 238.201171875 718.334960938 l 1
 238.069335938 718.334960938 l 2
 188.514648438 718.662109375 149.48046875 702.314453125 122.086914062 675.061523438 c 0
 94.6943359375 647.80859375 77.9326171875 608.807617188 78.3310546875 557.8125 c 2
 78.333984375 557.655273438 l 1
 78.333984375 387.770507812 l 1
 120.309570312 419.08203125 175.859375 438.540039062 238.407226562 438.330078125 c 0
 302.883789062 438.41015625 362.708984375 427.973632812 408.744140625 391.48046875 c 0
 454.811523438 354.961914062 479.482421875 294.033203125 479.16796875 215.670898438 c 2
 479.165039062 215.572265625 l 1
 479.165039062 215.474609375 l 2
 478.682617188 161.6953125 467.747070312 105.698242188 428.47265625 62.9091796875 c 0
 389.198242188 20.119140625 325.934570312 -3.09375 238.444335938 -3.333984375 c 2
 238.272460938 -3.333984375 l 1
 238.096679688 -3.333984375 l 2
 174.653320312 -2.9609375 116.345703125 9.400390625 71.099609375 42.4892578125 c 0
 25.85546875 75.576171875 -1.6767578125 130.916992188 -1.6669921875 197.499023438 c 2
 -1.6669921875 557.499023438 l 1
 -1.6640625 557.188476562 l 1
 -2.20703125 626.75390625 22.224609375 688.55859375 65.6650390625 731.776367188 c 0
 109.10546875 774.994140625 170.54296875 798.782226562 238.59765625 798.333007812 c 2
238.189453125 358.33203125 m 2
 137.315429688 358.693359375 77.837890625 291.53515625 78.333984375 238.791992188 c 2
 78.333984375 197.49609375 l 1
 78.333984375 197.493164062 l 2
 78.326171875 150.579101562 92.642578125 125.846679688 118.325195312 107.065429688 c 0
 143.979492188 88.3046875 185.6171875 77.0087890625 238.391601562 76.6728515625 c 0
 312.326171875 76.9052734375 349.012695312 94.6474609375 369.534179688 117.005859375 c 0
 390.05078125 139.358398438 398.755859375 172.678710938 399.163085938 216.052734375 c 0
 399.405273438 278.944335938 383.575195312 309.344726562 359.045898438 328.7890625 c 0
 334.508789062 348.240234375 293.68359375 358.413085938 238.391601562 358.33203125 c 2
 238.290039062 358.33203125 l 1
 238.189453125 358.33203125 l 2
EndSplineSet
EndChar

StartChar: seven
Encoding: 55 55 35
Width: 720
Flags: HW
LayerCount: 2
Fore
SplineSet
0.833984375 799.166015625 m 1
 480.305664062 799.166015625 l 1
 199.47265625 -7.2275390625 l 1
 118.02734375 -4.4384765625 l 1
 368.02734375 719.165039062 l 1
 0.833984375 719.165039062 l 1
 0.833984375 799.166015625 l 1
EndSplineSet
EndChar

StartChar: eight
Encoding: 56 56 36
Width: 720
Flags: HW
LayerCount: 2
Fore
SplineSet
238.32421875 799.154296875 m 0
 307.997070312 799.694335938 369.755859375 775.5859375 412.9921875 732.08984375 c 0
 456.301757812 688.51953125 480.095703125 626.8671875 480.83203125 557.926757812 c 2
 480.837890625 557.290039062 l 1
 480.825195312 556.653320312 l 2
 479.842773438 510.231445312 467.012695312 458.420898438 427.442382812 419.220703125 c 0
 421.923828125 413.75390625 415.857421875 408.702148438 409.458007812 403.90625 c 1
 414.619140625 400.602539062 419.649414062 397.125976562 424.390625 393.206054688 c 0
 467.32421875 357.708984375 479.885742188 302.139648438 480.000976562 238.44140625 c 0
 480.310546875 149.686523438 456.54296875 84.8876953125 409.934570312 45.783203125 c 0
 363.321289062 6.6728515625 302.739257812 -2.9150390625 239.115234375 -4.158203125 c 2
 238.521484375 -4.1708984375 l 1
 237.927734375 -4.1650390625 l 2
 174.256835938 -3.51953125 113.42578125 7.6220703125 67.2119140625 47.228515625 c 0
 21.0537109375 86.7890625 -2.763671875 151.440429688 -1.658203125 237.743164062 c 0
 -2.01171875 301.294921875 10.0458984375 356.719726562 52.783203125 392.123046875 c 0
 57.8916015625 396.354492188 63.2783203125 400.161132812 68.8759765625 403.67578125 c 1
 61.9384765625 408.806640625 55.3447265625 414.208007812 49.4306640625 420.125 c 0
 10.02734375 459.54296875 -2.3759765625 511.875976562 -1.6455078125 559.037109375 c 0
 -3.42578125 695.791015625 100.7890625 800.024414062 238.32421875 799.154296875 c 0
238.03515625 719.16796875 m 2
 137.45703125 719.920898438 76.8603515625 659.064453125 78.328125 559.756835938 c 2
 78.33984375 559.083007812 l 1
 78.3251953125 558.40625 l 2
 77.6943359375 525.206054688 85.2763671875 497.424804688 106.009765625 476.682617188 c 0
 126.744140625 455.940429688 165.045898438 438.057617188 238.51171875 438.01953125 c 0
 242.278320312 438.017578125 245.748046875 437.885742188 249.418945312 437.844726562 c 0
 315.705078125 439.647460938 351.296875 456.397460938 371.139648438 476.0546875 c 0
 391.879882812 496.600585938 399.994140625 524.356445312 400.805664062 557.646484375 c 0
 400.134765625 608.818359375 383.419921875 648.362304688 356.252929688 675.692382812 c 0
 328.982421875 703.126953125 290.262695312 719.630859375 238.690429688 719.16796875 c 2
 238.364257812 719.165039062 l 1
 238.03515625 719.16796875 l 2
248.370117188 357.821289062 m 0
 245.2890625 357.755859375 242.411132812 357.506835938 239.265625 357.499023438 c 1
 239.49609375 357.501953125 l 1
 162.627929688 356.8671875 121.475585938 345.140625 103.8203125 330.514648438 c 0
 86.1640625 315.889648438 77.970703125 292.174804688 78.3310546875 237.764648438 c 2
 78.333984375 237.361328125 l 1
 78.3310546875 236.958984375 l 2
 77.3564453125 164.712890625 94.4736328125 129.223632812 119.26953125 107.97265625 c 0
 143.977539062 86.796875 184.037109375 76.4677734375 238.176757812 75.8486328125 c 0
 293.786132812 77.00390625 334.134765625 86.61328125 358.513671875 107.068359375 c 0
 382.987304688 127.6015625 400.267578125 162.876953125 400 238.192382812 c 2
 400 238.228515625 l 1
 400 238.262695312 l 2
 399.90625 292.49609375 391.354492188 316.716796875 373.416015625 331.547851562 c 0
 356.301757812 345.698242188 317.959960938 356.788085938 248.370117188 357.821289062 c 0
EndSplineSet
EndChar

StartChar: nine
Encoding: 57 57 37
Width: 720
Flags: HW
LayerCount: 2
Fore
SplineSet
238.899414062 -3.328125 m 2
 -1.669921875 -3.328125 l 1
 -1.669921875 76.669921875 l 1
 239.296875 76.669921875 l 1
 239.428710938 76.669921875 l 2
 288.983398438 76.3427734375 328.017578125 92.6904296875 355.411132812 119.943359375 c 0
 382.803710938 147.196289062 399.565429688 186.197265625 399.166992188 237.192382812 c 2
 399.1640625 237.349609375 l 1
 399.1640625 407.234375 l 1
 357.188476562 375.922851562 301.638671875 356.46484375 239.090820312 356.674804688 c 0
 174.614257812 356.594726562 114.788085938 367.03125 68.7529296875 403.525390625 c 0
 22.6865234375 440.04296875 -1.9853515625 500.971679688 -1.669921875 579.333984375 c 2
 -1.6669921875 579.432617188 l 1
 -1.6669921875 579.530273438 l 2
 -1.1845703125 633.310546875 9.7509765625 689.306640625 49.025390625 732.095703125 c 0
 88.2998046875 774.885742188 151.563476562 798.098632812 239.053710938 798.338867188 c 2
 239.225585938 798.338867188 l 1
 239.401367188 798.338867188 l 2
 302.84375 797.965820312 361.151367188 785.604492188 406.3984375 752.515625 c 0
 451.642578125 719.428710938 479.174804688 664.087890625 479.165039062 597.505859375 c 2
 479.165039062 237.505859375 l 1
 479.162109375 237.81640625 l 1
 479.705078125 168.250976562 455.2734375 106.447265625 411.833007812 63.2294921875 c 0
 368.392578125 20.01171875 306.955078125 -3.77734375 238.899414062 -3.328125 c 2
239.30859375 436.672851562 m 1
 239.30859375 436.672851562 l 1
 340.182617188 436.311523438 399.66015625 503.469726562 399.163085938 556.212890625 c 2
 399.163085938 597.508789062 l 1
 399.163085938 597.51171875 l 2
 399.171875 644.42578125 384.854492188 669.158203125 359.171875 687.939453125 c 0
 333.518554688 706.700195312 291.880859375 717.99609375 239.10546875 718.33203125 c 0
 165.171875 718.099609375 128.485351562 700.357421875 107.962890625 677.999023438 c 0
 87.447265625 655.646484375 78.7412109375 622.327148438 78.333984375 578.952148438 c 0
 78.091796875 516.060546875 93.9228515625 485.66015625 118.452148438 466.215820312 c 0
 142.989257812 446.764648438 183.814453125 436.591796875 239.10546875 436.672851562 c 2
 239.20703125 436.672851562 l 1
 239.30859375 436.672851562 l 1
EndSplineSet
EndChar

StartChar: underscore
Encoding: 95 95 39
Width: 720
Flags: HW
LayerCount: 2
Fore
SplineSet
558 802 m 25
 -86 800 l 25
 -86 0 l 25
 560 0 l 25
 558 802 l 25
-166 884 m 25
 640 886 l 25
 640 -80 l 25
 -164 -80 l 25
 -166 884 l 25
EndSplineSet
EndChar

StartChar: period
Encoding: 46 46 40
Width: 720
Flags: HW
LayerCount: 2
Fore
SplineSet
156 59 m 28
 155 92 182 119 215 118 c 28
 248 117 274 90 275 57 c 28
 276 26 249 -1 218 0 c 28
 185 1 157 26 156 59 c 28
EndSplineSet
EndChar

StartChar: slash
Encoding: 47 47 41
Width: 720
Flags: HW
LayerCount: 2
Fore
SplineSet
432.500976562 801.239257812 m 1
 481.0703125 801.666992188 l 1
 480.47265625 722.09375 l 1
 50.47265625 0.4248046875 l 1
 1.0703125 0.83203125 l 1
 0.833984375 77.0732421875 l 1
 432.500976562 801.239257812 l 1
EndSplineSet
EndChar

StartChar: uni0394
Encoding: 916 916 42
Width: 720
Flags: HWO
LayerCount: 2
Fore
SplineSet
232.247070312 680.490234375 m 1
 479.065429688 200 l 1
 480.001953125 200 l 1
 480.001953125 198.17578125 l 1
 480.1640625 197.858398438 l 1
 480.001953125 197.775390625 l 1
 480.001953125 119.998046875 l 1
 0 119.998046875 l 1
 0 200 l 1
 0.2705078125 200 l 1
 0.02734375 200.1171875 l 1
 232.247070312 680.490234375 l 1
234.421875 501.174804688 m 1
 88.828125 200 l 1
 389.127929688 200 l 1
 234.421875 501.174804688 l 1
EndSplineSet
EndChar

StartChar: uni0000
Encoding: 0 0 43
Width: 720
Flags: HW
LayerCount: 2
Fore
SplineSet
558 802 m 25
 -86 800 l 25
 -86 0 l 25
 560 0 l 25
 558 802 l 25
-166 884 m 25
 640 886 l 25
 640 -80 l 25
 -164 -80 l 25
 -166 884 l 25
EndSplineSet
EndChar

StartChar: hyphen
Encoding: 45 45 45
Width: 720
Flags: HW
LayerCount: 2
Fore
SplineSet
0 437.499023438 m 1
 0 357.499023438 l 1
 480 357.499023438 l 1
 480 437.499023438 l 1
 0 437.499023438 l 1
EndSplineSet
EndChar

StartChar: less
Encoding: 60 60 46
Width: 720
Flags: HW
LayerCount: 2
Fore
SplineSet
480.5546875 681.145507812 m 1
 481.112304688 592.186523438 l 1
 159.045898438 399.249023438 l 1
 479.37109375 205.353515625 l 1
 479.794921875 118.811523438 l 1
 0.95703125 399.083007812 l 1
 480.5546875 681.145507812 l 1
EndSplineSet
EndChar

StartChar: greater
Encoding: 62 62 47
Width: 720
Flags: HW
LayerCount: 2
Fore
SplineSet
1.513671875 681.145507812 m 1
 481.112304688 399.083007812 l 1
 2.2734375 118.811523438 l 1
 2.697265625 205.353515625 l 1
 323.022460938 399.249023438 l 1
 0.95703125 592.186523438 l 1
 1.513671875 681.145507812 l 1
EndSplineSet
EndChar

StartChar: bar
Encoding: 124 124 48
Width: 720
Flags: HW
LayerCount: 2
Fore
SplineSet
432.500976562 801.239257812 m 1
 481.0703125 801.666992188 l 1
 480.47265625 722.09375 l 1
 50.47265625 0.4248046875 l 1
 1.0703125 0.83203125 l 1
 0.833984375 77.0732421875 l 1
 432.500976562 801.239257812 l 1
EndSplineSet
EndChar

StartChar: arrowup
Encoding: 8593 8593 49
Width: 720
Flags: HW
LayerCount: 2
Fore
SplineSet
200.000976562 -0.833984375 m 1
 280.000976562 -0.833984375 l 1
 280.000976562 799.166015625 l 1
 200.000976562 799.166015625 l 1
 200.000976562 -0.833984375 l 1
259.606445312 744.78125 m 1
 259.606445312 744.78125 200.413085938 798.575195312 200.393554688 798.553710938 c 2
 -15.439453125 561.053710938 l 1
 -15.439453125 561.053710938 43.75390625 507.259765625 43.7734375 507.28125 c 2
 259.606445312 744.78125 l 1
279.506835938 799.495117188 m 1
 220.475585938 745.5234375 l 1
 433.827148438 512.170898438 l 1
 492.858398438 566.142578125 l 1
 492.858398438 566.142578125 279.524414062 799.475585938 279.506835938 799.495117188 c 1
EndSplineSet
EndChar

StartChar: arrowdown
Encoding: 8595 8595 50
Width: 720
Flags: HW
LayerCount: 2
Fore
SplineSet
280.000976562 799.491210938 m 1
 200.000976562 799.491210938 l 1
 200.000976562 -0.5087890625 l 1
 280.000976562 -0.5087890625 l 1
 280.000976562 799.491210938 l 1
200.393554688 0.10546875 m 1
 259.606445312 53.8779296875 l 1
 43.7734375 291.377929688 l 1
 -15.439453125 237.60546875 l 1
 200.393554688 0.10546875 l 1
220.475585938 53.1318359375 m 1
 279.506835938 -0.8388671875 l 1
 492.858398438 232.516601562 l 1
 433.827148438 286.487304688 l 1
 220.475585938 53.1318359375 l 1
EndSplineSet
EndChar

StartChar: arrowleft
Encoding: 8592 8592 51
Width: 720
Flags: HW
LayerCount: 2
Fore
SplineSet
480.609375 360.538085938 m 1
 480.469726562 440.538085938 l 1
 2.1337890625 439.705078125 l 1
 2.2734375 359.705078125 l 1
 480.609375 360.538085938 l 1
2.796875 439.29296875 m 1
 56.5908203125 380.099609375 l 1
 294.111328125 595.951171875 l 1
 240.318359375 655.14453125 l 1
 240.318359375 655.14453125 2.818359375 439.3125 2.796875 439.29296875 c 1
55.8466796875 419.23046875 m 1
 1.875 360.19921875 l 1
 235.229492188 146.846679688 l 1
 289.200195312 205.877929688 l 1
 55.8466796875 419.23046875 l 1
EndSplineSet
EndChar

StartChar: arrowright
Encoding: 8594 8594 52
Width: 720
Flags: HW
LayerCount: 2
Fore
SplineSet
1.609375 440.537109375 m 1
 1.0419921875 360.5390625 l 1
 480.208007812 357.20703125 l 1
 480.775390625 437.205078125 l 1
 1.609375 440.537109375 l 1
426.106445312 377.598632812 m 1
 426.106445312 377.598632812 479.900390625 436.791992188 479.87890625 436.811523438 c 2
 242.37890625 652.64453125 l 1
 242.37890625 652.64453125 188.584960938 593.450195312 188.606445312 593.430664062 c 2
 426.106445312 377.598632812 l 1
480.80078125 357.6796875 m 1
 426.848632812 416.729492188 l 1
 193.516601562 203.395507812 l 1
 247.467773438 144.346679688 l 1
 480.80078125 357.6796875 l 1
EndSplineSet
EndChar

StartChar: plus
Encoding: 43 43 53
Width: 720
Flags: HW
LayerCount: 2
Fore
SplineSet
0 437.499023438 m 1
 0 357.499023438 l 1
 480 357.499023438 l 1
 480 437.499023438 l 1
 0 437.499023438 l 1
280.000976562 637.5 m 1
 200.000976562 637.5 l 1
 200.000976562 157.5 l 1
 280.000976562 157.5 l 1
 280.000976562 637.5 l 1
EndSplineSet
EndChar

StartChar: asterisk
Encoding: 42 42 54
Width: 720
Flags: HW
LayerCount: 2
Fore
SplineSet
280.833007812 880.83984375 m 1
 200.833007812 880.83984375 l 1
 200.833007812 400.83984375 l 1
 280.833007812 400.83984375 l 1
 280.833007812 880.83984375 l 1
52.9453125 795.506835938 m 1
 52.9453125 795.506835938 12.9443359375 726.223632812 13.0302734375 726.173828125 c 2
 428.721679688 486.173828125 l 1
 428.721679688 486.173828125 468.72265625 555.45703125 468.635742188 555.506835938 c 2
 52.9453125 795.506835938 l 1
12.9443359375 555.45703125 m 2
 52.9453125 486.173828125 l 1
 468.72265625 726.223632812 l 1
 428.721679688 795.506835938 l 1
 428.721679688 795.506835938 13.0302734375 555.506835938 12.9443359375 555.45703125 c 2
EndSplineSet
EndChar

StartChar: equal
Encoding: 61 61 55
Width: 720
Flags: HW
LayerCount: 2
Fore
SplineSet
0.833984375 320.833007812 m 1
 0.833984375 240.833007812 l 1
 480.833007812 240.833007812 l 1
 480.833007812 320.833007812 l 1
 0.833984375 320.833007812 l 1
-0.833984375 562.499023438 m 1
 -0.833984375 482.499023438 l 1
 479.16796875 482.499023438 l 1
 479.16796875 562.499023438 l 1
 -0.833984375 562.499023438 l 1
EndSplineSet
EndChar

StartChar: parenleft
Encoding: 40 40 56
Width: 720
Flags: HW
LayerCount: 2
Fore
SplineSet
98.5390625 400.727539062 m 0
 98.5390625 248.5546875 163.483398438 93.6513671875 296.158203125 5.0458984375 c 1
 310.899414062 27.2294921875 325.982421875 49.48046875 340.5078125 71.62109375 c 1
 234.819335938 142.203125 178.5390625 270.12890625 178.5390625 400.727539062 c 0
 178.5390625 530.1171875 233.618164062 656.49609375 341.228515625 727.469726562 c 1
 297.184570312 794.248046875 l 1
 162.552734375 705.453125 98.5390625 551.61328125 98.5390625 400.727539062 c 0
EndSplineSet
EndChar

StartChar: parenright
Encoding: 41 41 57
Width: 720
Flags: HW
LayerCount: 2
Fore
SplineSet
339.650390625 400.728515625 m 0
 339.650390625 270.12890625 283.370117188 142.203125 177.604492188 71.5693359375 c 1
 222.03125 5.0458984375 l 1
 354.70703125 93.6513671875 419.650390625 248.5546875 419.650390625 400.728515625 c 0
 419.650390625 551.61328125 355.637695312 705.453125 221.005859375 794.248046875 c 1
 221.005859375 794.248046875 176.961914062 727.469726562 177.041015625 727.416992188 c 0
 284.572265625 656.49609375 339.650390625 530.1171875 339.650390625 400.728515625 c 0
EndSplineSet
EndChar

StartChar: degree
Encoding: 176 176 58
Width: 720
Flags: HW
LayerCount: 2
Fore
SplineSet
120 600 m 0
 120 644.208007812 155.791992188 680 200 680 c 0
 244.208007812 680 280 644.208007812 280 600 c 0
 280 555.791992188 244.208007812 520 200 520 c 0
 155.791992188 520 120 555.791992188 120 600 c 0
40 600 m 0
 40 511.66015625 111.66015625 440 200 440 c 0
 288.33984375 440 360 511.66015625 360 600 c 0
 360 688.33984375 288.33984375 760 200 760 c 0
 111.66015625 760 40 688.33984375 40 600 c 0
EndSplineSet
EndChar

StartChar: ampersand
Encoding: 38 38 59
Width: 720
Flags: HW
LayerCount: 2
Fore
SplineSet
0 437.499023438 m 1
 0 357.499023438 l 1
 480 357.499023438 l 1
 480 437.499023438 l 1
 0 437.499023438 l 1
280.000976562 637.5 m 1
 200.000976562 637.5 l 1
 200.000976562 157.5 l 1
 280.000976562 157.5 l 1
 280.000976562 637.5 l 1
EndSplineSet
EndChar

StartChar: braceleft
Encoding: 123 123 60
Width: 720
Flags: HW
LayerCount: 2
Fore
SplineSet
480.609375 360.538085938 m 1
 480.469726562 440.538085938 l 1
 2.1337890625 439.705078125 l 1
 2.2734375 359.705078125 l 1
 480.609375 360.538085938 l 1
2.796875 439.29296875 m 1
 56.5908203125 380.099609375 l 1
 294.111328125 595.951171875 l 1
 240.318359375 655.14453125 l 1
 240.318359375 655.14453125 2.818359375 439.3125 2.796875 439.29296875 c 1
55.8466796875 419.23046875 m 1
 1.875 360.19921875 l 1
 235.229492188 146.846679688 l 1
 289.200195312 205.877929688 l 1
 55.8466796875 419.23046875 l 1
EndSplineSet
EndChar

StartChar: braceright
Encoding: 125 125 61
Width: 720
Flags: HW
LayerCount: 2
Fore
SplineSet
1.609375 440.537109375 m 1
 1.0419921875 360.5390625 l 1
 480.208007812 357.20703125 l 1
 480.775390625 437.205078125 l 1
 1.609375 440.537109375 l 1
426.106445312 377.598632812 m 1
 426.106445312 377.598632812 479.900390625 436.791992188 479.87890625 436.811523438 c 2
 242.37890625 652.64453125 l 1
 242.37890625 652.64453125 188.584960938 593.450195312 188.606445312 593.430664062 c 2
 426.106445312 377.598632812 l 1
480.80078125 357.6796875 m 1
 426.848632812 416.729492188 l 1
 193.516601562 203.395507812 l 1
 247.467773438 144.346679688 l 1
 480.80078125 357.6796875 l 1
EndSplineSet
EndChar

StartChar: quotedbl
Encoding: 34 34 62
Width: 720
Flags: HW
LayerCount: 2
Fore
SplineSet
119.165039062 600.833984375 m 1
 199.166015625 600.833984375 l 1
 199.166015625 401.666992188 l 1
 119.165039062 401.666992188 l 1
 119.165039062 600.833984375 l 1
280.000976562 600.833984375 m 1
 359.999023438 600.833984375 l 1
 359.999023438 400 l 1
 280.000976562 400 l 1
 280.000976562 600.833984375 l 1
EndSplineSet
EndChar
